<svg width="121" height="138" viewBox="0 0 121 138" fill="none" xmlns="http://www.w3.org/2000/svg">
<g clip-path="url(#clip0_5462_11778)">
<path d="M48.3849 5.81567C52.3849 3.50735 57.3838 6.39417 57.3838 11.0124V62.859C57.3838 65.003 56.2398 66.9841 54.3828 68.0558L9.52434 93.9427C5.52434 96.251 0.525391 93.3642 0.525391 88.7459V36.8994C0.525391 34.7553 1.66944 32.7742 3.52644 31.7026L48.3849 5.81567Z" fill="#651FFF"/>
<mask id="mask0_5462_11778" style="mask-type:alpha" maskUnits="userSpaceOnUse" x="0" y="5" width="58" height="90">
<path d="M48.3849 5.81567C52.3849 3.50735 57.3838 6.39417 57.3838 11.0124V62.859C57.3838 65.003 56.2398 66.9841 54.3828 68.0558L9.52434 93.9427C5.52434 96.251 0.525391 93.3642 0.525391 88.7459V36.8994C0.525391 34.7553 1.66944 32.7742 3.52644 31.7026L48.3849 5.81567Z" fill="#651FFF"/>
</mask>
<g mask="url(#mask0_5462_11778)">
<path d="M-63.9121 77.498L42.3976 -28.8118L48.3404 -24.0851L-57.9693 82.2246L-63.9121 77.498Z" fill="#FF9900"/>
<path d="M-49.3443 89.0842L56.9654 -17.2256L62.9082 -12.499L-43.4016 93.8108L-49.3443 89.0842Z" fill="#FF9900"/>
<path d="M-34.7773 100.671L71.5324 -5.63902L77.4752 -0.9124L-28.8346 105.397L-34.7773 100.671Z" fill="#FF9900"/>
<path d="M-20.2092 112.257L86.1005 5.94717L92.0433 10.6738L-14.2664 116.984L-20.2092 112.257Z" fill="#FF9900"/>
<path d="M-5.64144 123.843L100.668 17.5337L106.611 22.2603L0.301323 128.57L-5.64144 123.843Z" fill="#FF9900"/>
</g>
<path d="M108.418 99.3641C112.418 101.675 112.416 107.451 108.412 109.758L63.4843 135.65C61.6289 136.719 59.3442 136.719 57.4895 135.648L12.6226 109.756C8.62352 107.449 8.62057 101.678 12.6172 99.3659L57.4842 73.4129C59.3416 72.3384 61.6315 72.3378 63.4896 73.4111L108.418 99.3641Z" fill="#0084FF"/>
<mask id="mask1_5462_11778" style="mask-type:alpha" maskUnits="userSpaceOnUse" x="9" y="72" width="103" height="65">
<path d="M108.418 99.3641C112.418 101.675 112.416 107.451 108.412 109.758L63.4843 135.65C61.6289 136.719 59.3442 136.719 57.4895 135.648L12.6226 109.756C8.62352 107.449 8.62057 101.678 12.6172 99.3659L57.4842 73.4129C59.3416 72.3384 61.6315 72.3378 63.4896 73.4111L108.418 99.3641Z" fill="#EA8788"/>
</mask>
<g mask="url(#mask1_5462_11778)">
<path d="M-30.9814 138.125L75.3283 31.8153L81.2711 36.5419L-25.0387 142.852L-30.9814 138.125Z" fill="#0A0A0C"/>
<path d="M-16.4137 149.711L89.8961 43.4015L95.8388 48.1281L-10.4709 154.438L-16.4137 149.711Z" fill="#0A0A0C"/>
<path d="M-1.84668 161.298L104.463 54.9881L110.406 59.7147L4.09608 166.024L-1.84668 161.298Z" fill="#0A0A0C"/>
<path d="M12.7215 172.884L119.031 66.5742L124.974 71.3009L18.6642 177.611L12.7215 172.884Z" fill="#0A0A0C"/>
<path d="M27.2892 184.471L133.599 78.1608L139.542 82.8874L33.232 189.197L27.2892 184.471Z" fill="#0A0A0C"/>
</g>
<path d="M117.522 31.7032C119.38 32.7744 120.526 34.7564 120.526 36.9017V88.753C120.526 93.3697 115.53 96.2567 111.53 93.9515L66.594 68.0552C64.7352 66.984 63.5898 65.0019 63.5898 62.8566V11.0054C63.5898 6.38867 68.5857 3.50166 72.5857 5.80684L117.522 31.7032Z" fill="#0084FF"/>
<mask id="mask2_5462_11778" style="mask-type:alpha" maskUnits="userSpaceOnUse" x="63" y="4" width="58" height="91">
<path d="M117.521 31.7032C119.379 32.7744 120.525 34.7564 120.525 36.9017V88.753C120.525 93.3697 115.529 96.2567 111.529 93.9515L66.593 68.0552C64.7343 66.984 63.5889 65.0019 63.5889 62.8566V11.0054C63.5889 6.38867 68.5848 3.50166 72.5847 5.80684L117.521 31.7032Z" fill="#EA8888"/>
</mask>
<g mask="url(#mask2_5462_11778)">
<path d="M9.11035 71.9283L115.42 -34.3815L121.363 -29.6549L15.0531 76.6549L9.11035 71.9283Z" fill="#EA8888"/>
<path d="M23.6781 83.5145L129.988 -22.7953L135.931 -18.0687L29.6209 88.2411L23.6781 83.5145Z" fill="#EA8888"/>
<path d="M38.2451 95.101L144.555 -11.2087L150.498 -6.4821L44.1879 99.8276L38.2451 95.101Z" fill="#EA8888"/>
<path d="M52.8133 106.687L159.123 0.377464L165.066 5.10408L58.756 111.414L52.8133 106.687Z" fill="#EA8888"/>
<path d="M67.381 118.274L173.691 11.964L179.634 16.6906L73.3238 123L67.381 118.274Z" fill="#EA8888"/>
</g>
</g>
<defs>
<clipPath id="clip0_5462_11778">
<rect x="0.525391" y="0.622559" width="120" height="136.755" rx="4" fill="white"/>
</clipPath>
</defs>
</svg>
