<svg width="90" height="88" viewBox="0 0 90 88" fill="none" xmlns="http://www.w3.org/2000/svg">
<mask id="path-1-outside-1_4165_64003" maskUnits="userSpaceOnUse" x="-0.323975" y="0" width="90" height="88" fill="black">
<rect fill="white" x="-0.323975" width="90" height="88"/>
<path d="M45.0003 11L45.0003 43.5579L78.3236 43.5578L77.697 43.3734C62.0479 38.7667 49.7623 26.6026 45.0003 11Z"/>
<path d="M45.0003 11L45.0003 43.5579L11.6765 43.5576L12.3031 43.3732C27.9522 38.7665 40.2384 26.6026 45.0003 11Z"/>
<path d="M44.999 76.1147L44.999 43.5568L78.3223 43.5567L77.6957 43.7412C62.0466 48.3479 49.761 60.5121 44.999 76.1147Z"/>
<path d="M44.999 76.1147L44.999 43.5568L11.676 43.5566L12.3026 43.7411C27.9518 48.3478 40.237 60.5121 44.999 76.1147Z"/>
</mask>
<path d="M45.0003 11L45.0003 43.5579L78.3236 43.5578L77.697 43.3734C62.0479 38.7667 49.7623 26.6026 45.0003 11Z" fill="#FF9900"/>
<path d="M45.0003 11L45.0003 43.5579L11.6765 43.5576L12.3031 43.3732C27.9522 38.7665 40.2384 26.6026 45.0003 11Z" fill="#F6F6F6"/>
<path d="M44.999 76.1147L44.999 43.5568L78.3223 43.5567L77.6957 43.7412C62.0466 48.3479 49.761 60.5121 44.999 76.1147Z" fill="#0A0A0C"/>
<path d="M44.999 76.1147L44.999 43.5568L11.676 43.5566L12.3026 43.7411C27.9518 48.3478 40.237 60.5121 44.999 76.1147Z" fill="#A6A6A6"/>
<path d="M39.5003 11L39.5003 43.5579L50.5003 43.5579L50.5003 11L39.5003 11ZM50.499 76.1147L50.499 43.5568L39.499 43.5568L39.499 76.1147L50.499 76.1147ZM45.0003 11L55.5213 7.789C54.1089 3.16142 49.8387 5.72204e-06 45.0004 0C40.1621 -5.72205e-06 35.8918 3.1614 34.4794 7.78897L45.0003 11ZM45.0003 43.5579L45.0002 54.5579H45.0003L45.0003 43.5579ZM78.3236 43.5578L78.3236 54.5578C83.7926 54.5578 88.4309 50.54 89.2111 45.127C89.9913 39.714 86.6763 34.5499 81.4299 33.0055L78.3236 43.5578ZM77.697 43.3734L80.8033 32.8211L80.8033 32.8211L77.697 43.3734ZM11.6765 43.5576L8.57016 33.0054C3.32381 34.5497 0.00881481 39.7138 0.788966 45.1268C1.56912 50.5398 6.20746 54.5576 11.6764 54.5576L11.6765 43.5576ZM12.3031 43.3732L15.4094 53.9255L15.4094 53.9255L12.3031 43.3732ZM44.999 76.1147L34.4781 79.3257C35.8904 83.9532 40.1607 87.1147 44.999 87.1147C49.8373 87.1147 54.1075 83.9533 55.5199 79.3257L44.999 76.1147ZM44.999 43.5568L44.999 54.5568H44.999L44.999 43.5568ZM78.3223 43.5567L81.4287 54.109C86.675 52.5646 89.99 47.4005 89.2098 41.9875C88.4297 36.5745 83.7913 32.5567 78.3223 32.5567L78.3223 43.5567ZM77.6957 43.7412L80.8021 54.2935L77.6957 43.7412ZM11.676 43.5566L11.6761 32.5566C6.20712 32.5566 1.56872 36.5744 0.788532 41.9874C0.00834465 47.4004 3.32335 52.5645 8.56971 54.1089L11.676 43.5566ZM12.3026 43.7411L9.19632 54.2934L9.19633 54.2934L12.3026 43.7411ZM45.0003 54.5579L78.3236 54.5578L78.3236 32.5578L45.0003 32.5579L45.0003 54.5579ZM81.4299 33.0055L80.8033 32.8211L74.5907 53.9257L75.2173 54.1101L81.4299 33.0055ZM80.8033 32.8211C68.7029 29.2591 59.2033 19.8534 55.5213 7.789L34.4794 14.211C40.3212 33.3518 55.3928 48.2743 74.5907 53.9257L80.8033 32.8211ZM45.0004 32.5579L11.6765 32.5576L11.6764 54.5576L45.0002 54.5579L45.0004 32.5579ZM14.7828 54.1099L15.4094 53.9255L9.19676 32.8209L8.57016 33.0054L14.7828 54.1099ZM15.4094 53.9255C34.607 48.2742 49.6793 33.3521 55.5212 14.211L34.4794 7.78897C30.7974 19.8531 21.2974 29.2588 9.19675 32.8209L15.4094 53.9255ZM44.999 54.5568L78.3224 54.5567L78.3223 32.5567L44.999 32.5568L44.999 54.5568ZM75.216 33.0045L74.5894 33.1889L80.8021 54.2935L81.4287 54.109L75.216 33.0045ZM74.5894 33.1889C55.3916 38.8403 40.3199 53.7629 34.4781 72.9036L55.5199 79.3257C59.202 67.2613 68.7017 57.8555 80.8021 54.2935L74.5894 33.1889ZM44.9991 32.5568L11.6761 32.5566L11.676 54.5566L44.999 54.5568L44.9991 32.5568ZM8.56971 54.1089L9.19632 54.2934L15.4089 33.1888L14.7823 33.0043L8.56971 54.1089ZM9.19633 54.2934C21.2965 57.8553 30.7959 67.2611 34.4781 79.3257L55.5199 72.9037C49.6781 53.7631 34.607 38.8402 15.4089 33.1888L9.19633 54.2934Z" fill="white" mask="url(#path-1-outside-1_4165_64003)"/>
</svg>
