<svg width="67" height="66" viewBox="0 0 67 66" fill="none" xmlns="http://www.w3.org/2000/svg">
<path d="M33.3243 0.000291174L33.3243 32.5582L66.6476 32.5581L66.021 32.3737C50.3719 27.767 38.0862 15.6029 33.3243 0.000291174V0.000291174Z" fill="#FF9900"/>
<path d="M33.3238 -4.7033e-05L33.3237 32.5578L0.00042707 32.5579L0.627032 32.3734C16.2762 27.7667 28.5618 15.6025 33.3238 -4.7033e-05V-4.7033e-05Z" fill="#F6F6F6"/>
<path d="M33.3229 65.1148L33.323 32.5569L66.6463 32.5569L66.0197 32.7413C50.3706 37.348 38.0849 49.5122 33.3229 65.1148V65.1148Z" fill="#0A0A0C"/>
<path d="M33.3233 65.1147L33.3233 32.5568L-1.50826e-05 32.5569L0.62659 32.7413C16.2757 37.348 28.5613 49.5121 33.3233 65.1147V65.1147Z" fill="#88CDEA"/>
</svg>
