<svg width="87" height="85" viewBox="0 0 87 85" fill="none" xmlns="http://www.w3.org/2000/svg">
<path d="M31.7305 12.1342L43.3244 42.5578L74.4633 30.6912L73.8121 30.7419C57.5483 32.01 41.7364 25.0182 31.7305 12.1342V12.1342Z" fill="#0A0A0C"/>
<path d="M31.7299 12.1341L43.3239 42.5577L12.185 54.4243L12.7049 54.0288C25.6877 44.1514 32.8362 28.4096 31.7299 12.1341V12.1341Z" fill="#0085FF"/>
<path d="M54.9169 72.9809L43.3229 42.5573L74.4617 30.6907L73.9418 31.0862C60.9591 40.9636 53.8105 56.7054 54.9169 72.9809V72.9809Z" fill="#EA8888"/>
<path opacity="0.9" d="M54.9171 72.9805L43.3231 42.5569L12.1843 54.4236L12.8355 54.3728C29.0992 53.1048 44.9111 60.0965 54.9171 72.9805V72.9805Z" fill="#F6F6F6"/>
</svg>
