<svg width="91" height="91" viewBox="0 0 91 91" fill="none" xmlns="http://www.w3.org/2000/svg">
<circle cx="45.2549" cy="45.2548" r="32" transform="rotate(45 45.2549 45.2548)" fill="#F6F6F6"/>
<path d="M38.1838 52.3259C50.6805 64.8227 80.379 55.3855 67.8823 67.8823C55.3855 80.3791 35.1242 80.3791 22.6274 67.8823C10.1306 55.3855 10.1306 35.1242 22.6274 22.6275C35.1242 10.1307 25.687 39.8292 38.1838 52.3259Z" fill="#F6F6F6"/>
<path d="M52.326 52.326C64.8227 39.8292 55.3855 10.1307 67.8823 22.6275C80.3791 35.1243 80.3791 55.3856 67.8823 67.8824C55.3855 80.3791 35.1242 80.3791 22.6275 67.8823C10.1307 55.3856 39.8292 64.8228 52.326 52.326Z" fill="#FF9900"/>
<path d="M52.326 38.1838C39.8292 25.687 10.1307 35.1242 22.6275 22.6275C35.1243 10.1307 55.3856 10.1307 67.8824 22.6275C80.3791 35.1242 80.3791 55.3855 67.8823 67.8823C55.3856 80.3791 64.8228 50.6806 52.326 38.1838Z" fill="#0A0A0C"/>
<path d="M35.2549 45.2549C35.2549 62.928 62.928 77.2549 45.2549 77.2549C27.5818 77.2549 13.2549 62.928 13.2549 45.2549C13.2549 27.5818 27.5818 13.2549 45.2549 13.2549C62.928 13.2549 35.2549 27.5818 35.2549 45.2549Z" fill="#88CDEA"/>
</svg>
