<svg width="128" height="128" viewBox="0 0 128 128" fill="none" xmlns="http://www.w3.org/2000/svg">
<circle cx="63.9502" cy="63.9504" r="32" transform="rotate(-177.739 63.9502 63.9504)" fill="#0A0A0C"/>
<path d="M64.3447 53.9581C46.6854 53.261 31.278 80.3474 31.9752 62.6881C32.6723 45.0287 47.5532 31.2781 65.2126 31.9753C82.8719 32.6724 96.6225 47.5533 95.9254 65.2126C95.2282 82.872 82.0041 54.6553 64.3447 53.9581Z" fill="#0A0A0C"/>
<path d="M53.9579 63.5558C53.2608 81.2152 80.3472 96.6225 62.6879 95.9254C45.0285 95.2282 31.2779 80.3473 31.9751 62.688C32.6722 45.0286 47.5531 31.278 65.2124 31.9752C82.8718 32.6723 54.6551 45.8965 53.9579 63.5558Z" fill="#EA8888"/>
<path d="M63.5557 73.9425C81.2151 74.6396 96.6224 47.5532 95.9253 65.2126C95.2282 82.8719 80.3473 96.6225 62.6879 95.9254C45.0286 95.2282 31.278 80.3474 31.9751 62.688C32.6723 45.0286 45.8964 73.2454 63.5557 73.9425Z" fill="#F7F7F7"/>
<path d="M71.2947 57.1636C59.3006 44.1836 29.2529 52.4419 42.2329 40.4478C55.2129 28.4537 75.4585 29.253 87.4526 42.233C99.4466 55.213 98.6474 75.4585 85.6674 87.4526C72.6874 99.4467 83.2888 70.1436 71.2947 57.1636Z" fill="#0085FF"/>
</svg>
