<svg width="25" height="24" viewBox="0 0 25 24" fill="none" xmlns="http://www.w3.org/2000/svg">
<g clip-path="url(#clip0_126_1078)">
<circle cx="12.7461" cy="12" r="12" fill="#E1E1E1"/>
<path d="M15.7791 8.73626H15.7131M17.7571 8.73626L18.7461 9.1978L17.7571 9.65934M14.6582 11.5055C14.6582 12.6264 13.801 13.4835 12.6802 13.4835C11.5593 13.4835 8.52631 13.4835 6.74609 13.4835M15.3175 6.75824C16.5703 6.75824 17.6252 7.81318 17.6252 9.13187C17.6252 9.85714 17.2955 10.5824 16.7681 10.978C17.2955 11.6374 17.6252 12.4945 17.6252 13.4176C17.6252 15.5275 15.9769 17.2418 13.9329 17.2418C11.889 17.2418 10.0428 15.3297 8.39445 13.4176C9.64719 11.6374 13.5373 6.75824 15.3175 6.75824Z" stroke="white" stroke-width="1.5" stroke-miterlimit="10" stroke-linecap="round" stroke-linejoin="round"/>
</g>
<defs>
<clipPath id="clip0_126_1078">
<rect width="24" height="24" fill="white" transform="translate(0.746094)"/>
</clipPath>
</defs>
</svg>
