<svg width="25" height="24" viewBox="0 0 25 24" fill="none" xmlns="http://www.w3.org/2000/svg">
<g clip-path="url(#clip0_126_1073)">
<path d="M12.746 24C11.9983 24 11.2394 23.8103 10.5698 23.4197L3.94064 19.5917C2.60142 18.8105 1.7644 17.3708 1.7644 15.8196V8.186C1.7644 6.63474 2.60142 5.19507 3.94064 4.41386L10.5698 0.58591C11.909 -0.195303 13.5719 -0.195303 14.9223 0.58591L21.5514 4.41386C22.8907 5.19507 23.7277 6.63474 23.7277 8.186V15.8196C23.7277 17.3708 22.8907 18.8105 21.5514 19.5917L14.9223 23.4197C14.2527 23.8103 13.4938 24 12.746 24Z" fill="#FB4E4E"/>
<circle cx="12.7461" cy="16.75" r="0.75" fill="white"/>
<line x1="12.7461" y1="7.25" x2="12.7461" y2="13.75" stroke="white" stroke-width="1.5" stroke-linecap="round"/>
</g>
<defs>
<clipPath id="clip0_126_1073">
<rect width="24" height="24" fill="white" transform="translate(0.746094)"/>
</clipPath>
</defs>
</svg>
