<svg width="90" height="88" viewBox="0 0 90 88" fill="none" xmlns="http://www.w3.org/2000/svg">
<mask id="path-1-outside-1_3565_63395" maskUnits="userSpaceOnUse" x="-0.646484" y="0" width="90" height="88" fill="black">
<rect fill="white" x="-0.646484" width="90" height="88"/>
<path d="M44.6778 11L44.6778 43.5579L78.0011 43.5578L77.3745 43.3734C61.7254 38.7667 49.4398 26.6026 44.6778 11Z"/>
<path d="M44.6778 11L44.6778 43.5579L11.354 43.5576L11.9806 43.3732C27.6297 38.7665 39.9159 26.6026 44.6778 11Z"/>
<path d="M44.6765 76.1147L44.6765 43.5568L77.9998 43.5567L77.3732 43.7412C61.7241 48.3479 49.4385 60.5121 44.6765 76.1147Z"/>
<path d="M44.6765 76.1147L44.6765 43.5568L11.3535 43.5566L11.9801 43.7411C27.6292 48.3478 39.9145 60.5121 44.6765 76.1147Z"/>
</mask>
<path d="M44.6778 11L44.6778 43.5579L78.0011 43.5578L77.3745 43.3734C61.7254 38.7667 49.4398 26.6026 44.6778 11Z" fill="#FF9900"/>
<path d="M44.6778 11L44.6778 43.5579L11.354 43.5576L11.9806 43.3732C27.6297 38.7665 39.9159 26.6026 44.6778 11Z" fill="#F6F6F6"/>
<path d="M44.6765 76.1147L44.6765 43.5568L77.9998 43.5567L77.3732 43.7412C61.7241 48.3479 49.4385 60.5121 44.6765 76.1147Z" fill="#0A0A0C"/>
<path d="M44.6765 76.1147L44.6765 43.5568L11.3535 43.5566L11.9801 43.7411C27.6292 48.3478 39.9145 60.5121 44.6765 76.1147Z" fill="#A6A6A6"/>
<path d="M39.1778 11L39.1778 43.5579L50.1778 43.5579L50.1778 11L39.1778 11ZM50.1765 76.1147L50.1765 43.5568L39.1765 43.5568L39.1765 76.1147L50.1765 76.1147ZM44.6778 11L55.1987 7.789C53.7864 3.16142 49.5162 5.72204e-06 44.6778 0C39.8395 -5.72205e-06 35.5693 3.1614 34.1569 7.78897L44.6778 11ZM44.6778 43.5579L44.6777 54.5579H44.6778L44.6778 43.5579ZM78.0011 43.5578L78.0011 54.5578C83.4701 54.5578 88.1084 50.54 88.8886 45.127C89.6688 39.714 86.3538 34.5499 81.1074 33.0055L78.0011 43.5578ZM77.3745 43.3734L80.4808 32.8211L80.4808 32.8211L77.3745 43.3734ZM11.354 43.5576L8.24765 33.0054C3.0013 34.5497 -0.313695 39.7138 0.466456 45.1268C1.24661 50.5398 5.88495 54.5576 11.3539 54.5576L11.354 43.5576ZM11.9806 43.3732L15.0869 53.9255L15.0869 53.9255L11.9806 43.3732ZM44.6765 76.1147L34.1556 79.3257C35.5679 83.9532 39.8382 87.1147 44.6765 87.1147C49.5148 87.1147 53.785 83.9533 55.1974 79.3257L44.6765 76.1147ZM44.6765 43.5568L44.6765 54.5568H44.6765L44.6765 43.5568ZM77.9998 43.5567L81.1062 54.109C86.3525 52.5646 89.6675 47.4005 88.8873 41.9875C88.1071 36.5745 83.4688 32.5567 77.9998 32.5567L77.9998 43.5567ZM77.3732 43.7412L80.4796 54.2935L77.3732 43.7412ZM11.3535 43.5566L11.3536 32.5566C5.88461 32.5566 1.24621 36.5744 0.466022 41.9874C-0.314165 47.4004 3.00084 52.5645 8.2472 54.1089L11.3535 43.5566ZM11.9801 43.7411L8.87381 54.2934L8.87382 54.2934L11.9801 43.7411ZM44.6778 54.5579L78.0011 54.5578L78.0011 32.5578L44.6778 32.5579L44.6778 54.5579ZM81.1074 33.0055L80.4808 32.8211L74.2682 53.9257L74.8948 54.1101L81.1074 33.0055ZM80.4808 32.8211C68.3804 29.2591 58.8808 19.8534 55.1987 7.789L34.1569 14.211C39.9987 33.3518 55.0703 48.2743 74.2682 53.9257L80.4808 32.8211ZM44.6779 32.5579L11.354 32.5576L11.3539 54.5576L44.6777 54.5579L44.6779 32.5579ZM14.4603 54.1099L15.0869 53.9255L8.87425 32.8209L8.24765 33.0054L14.4603 54.1099ZM15.0869 53.9255C34.2845 48.2742 49.3568 33.3521 55.1987 14.211L34.1569 7.78897C30.4749 19.8531 20.9749 29.2588 8.87424 32.8209L15.0869 53.9255ZM44.6765 54.5568L77.9998 54.5567L77.9998 32.5567L44.6765 32.5568L44.6765 54.5568ZM74.8935 33.0045L74.2669 33.1889L80.4796 54.2935L81.1062 54.109L74.8935 33.0045ZM74.2669 33.1889C55.069 38.8403 39.9974 53.7629 34.1556 72.9036L55.1974 79.3257C58.8795 67.2613 68.3791 57.8555 80.4796 54.2935L74.2669 33.1889ZM44.6766 32.5568L11.3536 32.5566L11.3535 54.5566L44.6765 54.5568L44.6766 32.5568ZM8.2472 54.1089L8.87381 54.2934L15.0864 33.1888L14.4598 33.0043L8.2472 54.1089ZM8.87382 54.2934C20.974 57.8553 30.4734 67.2611 34.1556 79.3257L55.1974 72.9037C49.3556 53.7631 34.2845 38.8402 15.0864 33.1888L8.87382 54.2934Z" fill="white" mask="url(#path-1-outside-1_3565_63395)"/>
</svg>
