<svg width="125" height="139" viewBox="0 0 125 139" fill="none" xmlns="http://www.w3.org/2000/svg">
<path d="M0.683594 58.0396H57.6836V138.04H8.68359C4.26532 138.04 0.683594 134.458 0.683594 130.04V58.0396Z" fill="#0A0A0C"/>
<mask id="mask0_5462_11837" style="mask-type:alpha" maskUnits="userSpaceOnUse" x="0" y="58" width="59" height="81">
<path d="M0.683594 58.0396H58.6836V138.04H8.68359C4.26532 138.04 0.683594 134.458 0.683594 130.04V58.0396Z" fill="#0A0A0C"/>
</mask>
<g mask="url(#mask0_5462_11837)">
<path d="M8.02307 77.507C18.6343 60.9861 0.913493 31.2642 17.7243 41.6925C34.5351 52.1208 39.5609 73.9675 28.9497 90.4885C18.3384 107.009 -3.89153 111.949 -20.7024 101.52C-37.5132 91.092 -2.58816 94.028 8.02307 77.507Z" fill="#651FFF"/>
<path d="M26.4921 89.6499C37.0441 73.2211 19.4222 43.6652 36.1392 54.0353C52.8561 64.4053 57.8538 86.1301 47.3019 102.559C36.7499 118.988 14.644 123.899 -2.07294 113.529C-18.7899 103.159 15.9401 106.079 26.4921 89.6499Z" fill="#FF9900"/>
<path d="M33.7694 95.5683C48.3377 72.8865 24.0087 32.0812 47.0883 46.3983C70.168 60.7153 77.0679 90.7088 62.4997 113.391C47.9315 136.072 17.4118 142.853 -5.66787 128.536C-28.7475 114.219 19.2012 118.25 33.7694 95.5683Z" fill="white"/>
<path d="M35.4838 109.588C54.3219 80.2583 22.8622 27.4933 52.7064 46.0066C82.5506 64.5198 91.4728 103.304 72.6347 132.634C53.7967 161.963 14.3319 170.732 -15.5123 152.219C-45.3564 133.705 16.6458 138.918 35.4838 109.588Z" fill="#0084FF"/>
</g>
<rect x="66.5254" y="58.0396" width="58.1582" height="36" fill="#0A0A0C"/>
<mask id="mask1_5462_11837" style="mask-type:alpha" maskUnits="userSpaceOnUse" x="66" y="58" width="59" height="37">
<rect x="66.5254" y="58.0396" width="58" height="36" fill="#0A0A0C"/>
</mask>
<g mask="url(#mask1_5462_11837)">
<path d="M74.0192 67.8267C84.8932 50.8967 66.7336 20.4389 83.9607 31.1254C101.188 41.8119 106.338 64.1995 95.464 81.1296C84.59 98.0597 61.8096 103.121 44.5825 92.4346C27.3554 81.7481 63.1452 84.7568 74.0192 67.8267Z" fill="#651FFF"/>
<path d="M90.6444 76.3359C101.23 59.8545 83.5518 30.2038 100.322 40.6071C117.093 51.0104 122.107 72.8048 111.521 89.2862C100.935 105.768 78.7583 110.695 61.9878 100.292C45.2172 89.8883 80.0585 92.8173 90.6444 76.3359Z" fill="white"/>
<path d="M106.702 81.5561C117.288 65.0747 99.6099 35.4241 116.38 45.8274C133.151 56.2307 138.165 78.025 127.579 94.5064C116.993 110.988 94.8164 115.915 78.0459 105.512C61.2753 95.1085 96.1167 98.0375 106.702 81.5561Z" fill="#0084FF"/>
</g>
<path d="M66.5254 102.04H124.684V130.04C124.684 134.458 121.102 138.04 116.684 138.04H66.5254V102.04Z" fill="#0A0A0C"/>
<mask id="mask2_5462_11837" style="mask-type:alpha" maskUnits="userSpaceOnUse" x="66" y="102" width="59" height="37">
<path d="M66.5254 102.04H124.525V130.04C124.525 134.458 120.944 138.04 116.525 138.04H66.5254V102.04Z" fill="#D9D9D9"/>
</mask>
<g mask="url(#mask2_5462_11837)">
<path d="M81.991 120.885C65.2182 134.173 72.7931 170.756 59.2719 154.272C45.7507 137.789 48.3867 113.654 65.1595 100.366C81.9323 87.0778 106.49 89.6683 120.012 106.152C133.533 122.635 98.7638 107.597 81.991 120.885Z" fill="#FF9900"/>
<path d="M101.066 108.318C84.0584 98.6685 54.896 117.017 64.7152 100.303C74.5344 83.5889 96.2816 77.8623 113.289 87.5122C130.296 97.1621 136.123 118.534 126.304 135.248C116.485 151.963 118.073 117.968 101.066 108.318Z" fill="#651FFF"/>
</g>
<path d="M0.683594 8.03955C0.683594 3.62127 4.26532 0.0395508 8.68359 0.0395508H116.684C121.102 0.0395508 124.684 3.62127 124.684 8.03955V50.0396H0.683594V8.03955Z" fill="#0A0A0C"/>
<mask id="mask3_5462_11837" style="mask-type:alpha" maskUnits="userSpaceOnUse" x="0" y="0" width="125" height="51">
<path d="M0.683594 8.03955C0.683594 3.62127 4.26532 0.0395508 8.68359 0.0395508H116.684C121.102 0.0395508 124.684 3.62127 124.684 8.03955V50.0396H0.683594V8.03955Z" fill="#D9D9D9"/>
</mask>
<g mask="url(#mask3_5462_11837)">
<path d="M17.2551 16.2647C27.9416 -0.66535 10.095 -31.1231 27.0251 -20.4366C43.9552 -9.75013 49.0166 12.6375 38.3301 29.5676C27.6436 46.4976 5.25594 51.5591 -11.6741 40.8726C-28.6042 30.1861 6.56855 33.1948 17.2551 16.2647Z" fill="#651FFF"/>
<path d="M35.5606 26.0142C47.3425 7.34874 27.6667 -26.2311 46.3322 -14.4492C64.9976 -2.66728 70.5779 22.0152 58.7959 40.6807C47.014 59.3462 22.3315 64.9264 3.66605 53.1445C-14.9994 41.3626 23.7787 44.6797 35.5606 26.0142Z" fill="#FF9900"/>
<path d="M87.1 33.0164C81.9041 10.7745 42.865 0.879948 65.1068 -4.31598C87.3486 -9.51192 109.591 4.3065 114.787 26.5483C119.983 48.7901 106.165 71.0328 83.9229 76.2287C61.6811 81.4247 92.2959 55.2582 87.1 33.0164Z" fill="#EA8888"/>
<path d="M102.409 13.0931C97.2127 -9.14867 58.1736 -19.0433 80.4154 -24.2392C102.657 -29.4351 124.9 -15.6167 130.096 6.6251C135.292 28.8669 121.473 51.1096 99.2315 56.3055C76.9897 61.5015 107.605 35.335 102.409 13.0931Z" fill="#0084FF"/>
</g>
</svg>
