<svg width="25" height="24" viewBox="0 0 25 24" fill="none" xmlns="http://www.w3.org/2000/svg">
<g id="Icons/Icons24&#209;&#133;24/Black/file types/File_dock">
<path id="Vector 55" d="M9 12.5L16 12.5" stroke="#323232" stroke-linecap="round"/>
<path id="Vector 58" d="M9 15.5L13 15.5" stroke="#323232" stroke-linecap="round"/>
<path id="Rectangle 4152" d="M6 5.9C6 5.05992 6 4.63988 6.16349 4.31901C6.3073 4.03677 6.53677 3.8073 6.81901 3.66349C7.13988 3.5 7.55992 3.5 8.4 3.5H13.0059C13.3728 3.5 13.5562 3.5 13.7288 3.54145C13.8819 3.57819 14.0282 3.6388 14.1624 3.72104C14.3138 3.8138 14.4435 3.94352 14.7029 4.20294L18.2971 7.79706C18.5565 8.05648 18.6862 8.1862 18.779 8.33757C18.8612 8.47178 18.9218 8.6181 18.9586 8.77115C19 8.94378 19 9.12723 19 9.49411V18.1C19 18.9401 19 19.3601 18.8365 19.681C18.6927 19.9632 18.4632 20.1927 18.181 20.3365C17.8601 20.5 17.4401 20.5 16.6 20.5H8.4C7.55992 20.5 7.13988 20.5 6.81901 20.3365C6.53677 20.1927 6.3073 19.9632 6.16349 19.681C6 19.3601 6 18.9401 6 18.1V5.9Z" stroke="#323232"/>
<path id="Vector 317" d="M13 3.5V7.1C13 7.94008 13 8.36012 13.1635 8.68099C13.3073 8.96323 13.5368 9.1927 13.819 9.33651C14.1399 9.5 14.5599 9.5 15.4 9.5H19" stroke="#323232"/>
</g>
</svg>
