<svg width="120" height="138" viewBox="0 0 120 138" fill="none" xmlns="http://www.w3.org/2000/svg">
<g clip-path="url(#clip0_5782_10045)">
<path d="M47.8595 6.03101C51.8595 3.72268 56.8584 6.60951 56.8584 11.2278V63.0743C56.8584 65.2184 55.7144 67.1995 53.8574 68.2711L8.99894 94.158C4.99894 96.4664 0 93.5795 0 88.9613V37.1147C0 34.9707 1.14405 32.9896 3.00105 31.9179L47.8595 6.03101Z" fill="#651FFF"/>
<mask id="mask0_5782_10045" style="mask-type:alpha" maskUnits="userSpaceOnUse" x="0" y="5" width="57" height="90">
<path d="M47.8595 6.03101C51.8595 3.72268 56.8584 6.60951 56.8584 11.2278V63.0743C56.8584 65.2184 55.7144 67.1995 53.8574 68.2711L8.99894 94.158C4.99894 96.4664 0 93.5795 0 88.9613V37.1147C0 34.9707 1.14405 32.9896 3.00105 31.9179L47.8595 6.03101Z" fill="#651FFF"/>
</mask>
<g mask="url(#mask0_5782_10045)">
<path d="M-64.4375 77.714L41.8722 -28.5957L47.815 -23.8691L-58.4947 82.4407L-64.4375 77.714Z" fill="#FF9900"/>
<path d="M-49.8697 89.3002L56.44 -17.0095L62.3828 -12.2829L-43.927 94.0268L-49.8697 89.3002Z" fill="#FF9900"/>
<path d="M-35.3027 100.887L71.007 -5.42295L76.9498 -0.696335L-29.36 105.613L-35.3027 100.887Z" fill="#FF9900"/>
<path d="M-20.7346 112.473L85.5751 6.16323L91.5179 10.8899L-14.7918 117.2L-20.7346 112.473Z" fill="#FF9900"/>
<path d="M-6.16683 124.06L100.143 17.7498L106.086 22.4764L-0.224068 128.786L-6.16683 124.06Z" fill="#FF9900"/>
</g>
<path d="M107.893 99.5785C111.894 101.89 111.891 107.666 107.888 109.972L62.9599 135.864C61.1045 136.934 58.8198 136.933 56.965 135.863L12.0981 109.971C8.0991 107.663 8.09615 101.892 12.0928 99.5803L56.9597 73.6272C58.8172 72.5528 61.1071 72.5521 62.9652 73.6255L107.893 99.5785Z" fill="#272A37"/>
<mask id="mask1_5782_10045" style="mask-type:alpha" maskUnits="userSpaceOnUse" x="9" y="72" width="102" height="65">
<path d="M107.893 99.5804C111.894 101.892 111.891 107.667 107.888 109.974L62.9599 135.866C61.1045 136.936 58.8198 136.935 56.965 135.864L12.0981 109.973C8.0991 107.665 8.09615 101.894 12.0928 99.5822L56.9597 73.6292C58.8172 72.5547 61.1071 72.5541 62.9652 73.6274L107.893 99.5804Z" fill="#EA8788"/>
</mask>
<g mask="url(#mask1_5782_10045)">
<path d="M-31.5059 138.341L74.8039 32.0312L80.7467 36.7579L-25.5631 143.068L-31.5059 138.341Z" fill="#0A0A0C"/>
<path d="M-16.9381 149.927L89.3717 43.6174L95.3144 48.3441L-10.9953 154.654L-16.9381 149.927Z" fill="#0A0A0C"/>
<path d="M-2.3711 161.514L103.939 55.204L109.881 59.9306L3.57167 166.24L-2.3711 161.514Z" fill="#0A0A0C"/>
<path d="M12.197 173.1L118.507 66.7902L124.45 71.5168L18.1398 177.827L12.197 173.1Z" fill="#0A0A0C"/>
<path d="M26.7648 184.686L133.075 78.3767L139.017 83.1034L32.7076 189.413L26.7648 184.686Z" fill="#0A0A0C"/>
</g>
<path d="M116.996 31.9185C118.855 32.9897 120 34.9718 120 37.1171V88.9684C120 93.585 115.005 96.4721 111.005 94.1669L66.0686 68.2705C64.2098 67.1993 63.0645 65.2173 63.0645 63.072V11.2207C63.0645 6.604 68.0603 3.71699 72.0603 6.02217L116.996 31.9185Z" fill="#272A37"/>
<mask id="mask2_5782_10045" style="mask-type:alpha" maskUnits="userSpaceOnUse" x="63" y="5" width="57" height="90">
<path d="M116.996 31.9185C118.855 32.9897 120 34.9718 120 37.1171V88.9684C120 93.585 115.005 96.4721 111.005 94.1669L66.0686 68.2705C64.2098 67.1993 63.0645 65.2173 63.0645 63.072V11.2207C63.0645 6.604 68.0603 3.71699 72.0603 6.02217L116.996 31.9185Z" fill="#272A37"/>
</mask>
<g mask="url(#mask2_5782_10045)">
<path d="M8.58594 72.1437L114.896 -34.166L120.838 -29.4394L14.5287 76.8703L8.58594 72.1437Z" fill="#EA8888"/>
<path d="M23.1537 83.7299L129.463 -22.5798L135.406 -17.8532L29.0965 88.4565L23.1537 83.7299Z" fill="#EA8888"/>
<path d="M37.7207 95.3165L144.03 -10.9933L149.973 -6.26665L43.6635 100.043L37.7207 95.3165Z" fill="#EA8888"/>
<path d="M52.2888 106.903L158.599 0.592918L164.541 5.31954L58.2316 111.629L52.2888 106.903Z" fill="#EA8888"/>
<path d="M66.8566 118.489L173.166 12.1795L179.109 16.9061L72.7994 123.216L66.8566 118.489Z" fill="#EA8888"/>
</g>
</g>
<defs>
<clipPath id="clip0_5782_10045">
<rect y="0.837891" width="120" height="136.755" rx="4" fill="white"/>
</clipPath>
</defs>
</svg>
