<svg width="127" height="143" viewBox="0 0 127 143" fill="none" xmlns="http://www.w3.org/2000/svg">
<path d="M34.1426 64.1997C34.1426 62.6598 35.8098 61.6976 37.1431 62.4679L58.1449 74.6018C60.619 76.0312 62.1428 78.6716 62.1428 81.5288V138.889C62.1428 140.429 60.475 141.392 59.1416 140.62L38.1378 128.474C35.6653 127.045 34.1426 124.405 34.1426 121.549V64.1997Z" fill="#651FFF"/>
<mask id="mask0_5883_46123" style="mask-type:alpha" maskUnits="userSpaceOnUse" x="34" y="62" width="29" height="79">
<path d="M34.1426 64.1997C34.1426 62.6598 35.8098 61.6976 37.1431 62.4679L58.1449 74.6018C60.619 76.0312 62.1428 78.6716 62.1428 81.5288V138.889C62.1428 140.429 60.475 141.392 59.1416 140.62L38.1378 128.474C35.6653 127.045 34.1426 124.405 34.1426 121.549V64.1997Z" fill="#651FFF"/>
</mask>
<g mask="url(#mask0_5883_46123)">
<path d="M106.134 63.8916L51.5038 158.823L46.4354 156.611L101.065 61.6797L106.134 63.8916Z" fill="#FF9900"/>
<path d="M93.7092 58.4698L39.0794 153.402L34.011 151.19L88.6408 56.258L93.7092 58.4698Z" fill="#FF9900"/>
<path d="M81.2853 53.0477L26.6555 147.979L21.5871 145.768L76.2169 50.8359L81.2853 53.0477Z" fill="#FF9900"/>
<path d="M68.8606 47.6261L14.2308 142.558L9.16241 140.346L63.7922 45.4142L68.8606 47.6261Z" fill="#FF9900"/>
<path d="M56.4362 42.2041L1.80638 137.136L-3.26204 134.924L51.3677 39.9922L56.4362 42.2041Z" fill="#FF9900"/>
</g>
<path d="M92.1426 64.1997C92.1426 62.6598 90.4754 61.6976 89.1421 62.4679L68.1402 74.6018C65.6662 76.0312 64.1423 78.6716 64.1423 81.5288V138.889C64.1423 140.429 65.8102 141.392 67.1435 140.62L88.1474 128.474C90.6199 127.045 92.1426 124.405 92.1426 121.549V64.1997Z" fill="#272A37"/>
<mask id="mask1_5883_46123" style="mask-type:alpha" maskUnits="userSpaceOnUse" x="64" y="62" width="29" height="79">
<path d="M92.1426 64.1997C92.1426 62.6598 90.4754 61.6976 89.1421 62.4679L68.1402 74.6018C65.6662 76.0312 64.1423 78.6716 64.1423 81.5288V138.889C64.1423 140.429 65.8102 141.392 67.1435 140.62L88.1474 128.474C90.6199 127.045 92.1426 124.405 92.1426 121.549V64.1997Z" fill="#272A37"/>
</mask>
<g mask="url(#mask1_5883_46123)">
<path d="M78.2159 166.673L23.3175 71.8964L27.7672 68.6129L82.6656 163.39L78.2159 166.673Z" fill="#0A0A0C"/>
<path d="M89.1234 158.624L34.225 63.8474L38.6747 60.564L93.5731 155.341L89.1234 158.624Z" fill="#0A0A0C"/>
<path d="M100.031 150.576L45.1327 55.799L49.5824 52.5156L104.481 147.292L100.031 150.576Z" fill="#0A0A0C"/>
<path d="M110.939 142.526L56.0403 47.7498L60.49 44.4663L115.388 139.243L110.939 142.526Z" fill="#0A0A0C"/>
<path d="M121.846 134.478L66.9481 39.7009L71.3978 36.4174L126.296 131.194L121.846 134.478Z" fill="#0A0A0C"/>
</g>
<path d="M89.141 56.8688C90.4752 57.6365 90.4784 59.5606 89.1466 60.3326L67.0639 73.1343C64.5746 74.5773 61.5022 74.5724 59.0175 73.1215L37.1381 60.3451C35.8077 59.5682 35.8184 57.642 37.1573 56.8798L59.32 44.2648C61.785 42.8617 64.8087 42.8687 67.2672 44.2832L89.141 56.8688Z" fill="#272A37"/>
<mask id="mask2_5883_46123" style="mask-type:alpha" maskUnits="userSpaceOnUse" x="36" y="43" width="55" height="32">
<path d="M89.141 56.8688C90.4752 57.6365 90.4784 59.5606 89.1466 60.3326L67.0639 73.1343C64.5746 74.5773 61.5022 74.5724 59.0175 73.1215L37.1381 60.3451C35.8077 59.5682 35.8184 57.642 37.1573 56.8798L59.32 44.2648C61.785 42.8617 64.8087 42.8687 67.2672 44.2832L89.141 56.8688Z" fill="#272A37"/>
</mask>
<g mask="url(#mask2_5883_46123)">
<path d="M118.841 8.61813L64.2108 103.55L59.1424 101.338L113.772 6.40629L118.841 8.61813Z" fill="#0084FF"/>
<path d="M106.416 3.19641L51.7864 98.1282L46.718 95.9163L101.348 0.984563L106.416 3.19641Z" fill="#0084FF"/>
<path d="M93.9923 -2.22572L39.3625 92.706L34.2941 90.4942L88.9239 -4.43756L93.9923 -2.22572Z" fill="#0084FF"/>
<path d="M81.5677 -7.64737L26.9379 87.2844L21.8694 85.0725L76.4992 -9.85922L81.5677 -7.64737Z" fill="#0084FF"/>
<path d="M69.1432 -13.0694L14.5134 81.8624L9.44499 79.6505L64.0748 -15.2812L69.1432 -13.0694Z" fill="#0084FF"/>
</g>
<path d="M89.141 14.8688C90.4752 15.6365 90.4784 17.5606 89.1466 18.3326L67.0639 31.1343C64.5746 32.5773 61.5022 32.5724 59.0175 31.1215L37.1381 18.3451C35.8077 17.5682 35.8184 15.642 37.1573 14.8798L59.32 2.26477C61.785 0.861683 64.8087 0.868707 67.2672 2.28324L89.141 14.8688Z" fill="#FF9900"/>
<path d="M0.142578 41.1997C0.142578 39.6598 1.80977 38.6976 3.1431 39.4679L24.1449 51.6018C26.619 53.0312 28.1428 55.6716 28.1428 58.5288V115.889C28.1428 117.429 26.475 118.392 25.1416 117.62L4.13776 105.474C1.66527 104.045 0.142578 101.405 0.142578 98.549V41.1997Z" fill="#651FFF"/>
<path d="M55.141 33.8688C56.4752 34.6365 56.4784 36.5606 55.1466 37.3326L33.0639 50.1343C30.5746 51.5773 27.5022 51.5724 25.0175 50.1215L3.13813 37.3451C1.8077 36.5682 1.81836 34.642 3.15731 33.8798L25.32 21.2648C27.785 19.8617 30.8087 19.8687 33.2672 21.2832L55.141 33.8688Z" fill="#651FFF"/>
<path d="M126.143 42.1997C126.143 40.6598 124.475 39.6976 123.142 40.4679L102.14 52.6018C99.6662 54.0312 98.1423 56.6716 98.1423 59.5288V116.889C98.1423 118.429 99.8102 119.392 101.144 118.62L122.147 106.474C124.62 105.045 126.143 102.405 126.143 99.549V42.1997Z" fill="#0084FF"/>
<path d="M71.1442 34.8688C69.8099 35.6365 69.8068 37.5606 71.1385 38.3326L93.2213 51.1343C95.7106 52.5773 98.783 52.5724 101.268 51.1215L123.147 38.3451C124.477 37.5682 124.467 35.642 123.128 34.8798L100.965 22.2648C98.5001 20.8617 95.4765 20.8687 93.018 22.2832L71.1442 34.8688Z" fill="#0084FF"/>
</svg>
