<svg width="168" height="117" viewBox="0 0 168 117" fill="none" xmlns="http://www.w3.org/2000/svg">
<rect width="168" height="116" fill="#272A37"/>
<rect y="0.214844" width="20" height="20" rx="10" fill="#D9D9D9"/>
<mask id="mask0_5782_10058" style="mask-type:alpha" maskUnits="userSpaceOnUse" x="0" y="0" width="20" height="21">
<rect y="0.214844" width="20" height="20" rx="10" fill="#D9D9D9"/>
</mask>
<g mask="url(#mask0_5782_10058)">
<circle cx="7.00493" cy="10.6274" r="16" transform="rotate(-177.739 7.00493 10.6274)" fill="#0A0A0C"/>
<path d="M10.6777 7.23364C4.68063 0.743634 -10.3432 4.87281 -3.85319 -1.12424C2.63681 -7.12128 12.7596 -6.72166 18.7566 -0.23166C24.7537 6.25834 24.354 16.3811 17.864 22.3781C11.374 28.3752 16.6747 13.7236 10.6777 7.23364Z" fill="#0085FF"/>
</g>
<rect x="28" y="0.214844" width="40" height="20" rx="6" fill="#0A0A0C"/>
<mask id="mask1_5782_10058" style="mask-type:alpha" maskUnits="userSpaceOnUse" x="28" y="0" width="40" height="21">
<rect x="28" y="0.214844" width="40" height="20" rx="6" fill="#FF9900"/>
</mask>
<g mask="url(#mask1_5782_10058)">
<path d="M40.764 7.05514C46.4076 -0.0693343 39.8269 -14.6818 46.9514 -9.03819C54.0758 -3.39459 55.2763 6.95598 49.6327 14.0805C43.9891 21.2049 33.6385 22.4054 26.5141 16.7618C19.3896 11.1182 35.1204 14.1796 40.764 7.05514Z" fill="#0084FF"/>
<path d="M45.5683 9.23472C51.1455 0.399046 41.8315 -15.4966 50.6672 -9.91944C59.5029 -4.34223 62.1444 7.34171 56.5672 16.1774C50.99 25.0131 39.306 27.6546 30.4703 22.0774C21.6347 16.5002 39.9911 18.0704 45.5683 9.23472Z" fill="#651FFF"/>
<path d="M54.2885 10.5817C62.1431 -1.8619 49.0258 -24.2485 61.4695 -16.3939C73.9131 -8.53925 77.6333 7.91574 69.7787 20.3594C61.9241 32.8031 45.4691 36.5232 33.0254 28.6686C20.5818 20.814 46.4338 23.0254 54.2885 10.5817Z" fill="#EA8888"/>
</g>
<rect x="76" y="0.214844" width="40" height="20" rx="6" fill="#0A0A0C"/>
<mask id="mask2_5782_10058" style="mask-type:alpha" maskUnits="userSpaceOnUse" x="76" y="0" width="40" height="21">
<rect x="76" y="0.214844" width="40" height="20" rx="6" fill="#0A0A0C"/>
</mask>
<g mask="url(#mask2_5782_10058)">
<path d="M85.5036 9.56384C90.9129 0.994089 81.8793 -14.4232 90.449 -9.01384C99.0188 -3.6045 101.581 7.7278 96.1714 16.2976C90.7621 24.8673 79.4298 27.4293 70.8601 22.02C62.2903 16.6106 80.0942 18.1336 85.5036 9.56384Z" fill="#272A37"/>
<path d="M105.923 18.3357C113.778 5.892 100.661 -16.4946 113.104 -8.63996C125.548 -0.785345 129.268 15.6697 121.413 28.1133C113.559 40.557 97.1038 44.2771 84.6602 36.4225C72.2165 28.5679 98.0686 30.7793 105.923 18.3357Z" fill="#FF9900"/>
<path d="M91.6262 8.89386C97.7575 -2.00337 91.2832 -17.2765 98.5922 -13.1642C105.901 -9.05188 106.856 3.11574 100.725 14.013C94.5934 24.9102 83.698 30.4105 76.3891 26.2982C69.0801 22.1859 85.495 19.7911 91.6262 8.89386Z" fill="#EA8888"/>
<path d="M143.903 30.6533C130.463 37.8109 130.775 64.6581 123.617 51.218C116.46 37.778 121.553 21.0804 134.993 13.9228C148.433 6.76524 165.13 11.8582 172.288 25.2982C179.446 38.7382 157.343 23.4958 143.903 30.6533Z" fill="#0084FF"/>
</g>
<rect x="124" y="0.214844" width="40" height="20" rx="6" fill="#0A0A0C"/>
<mask id="mask3_5782_10058" style="mask-type:alpha" maskUnits="userSpaceOnUse" x="124" y="0" width="40" height="21">
<rect x="124" y="0.214844" width="40" height="20" rx="6" fill="#0A0A0C"/>
</mask>
<g mask="url(#mask3_5782_10058)">
<path d="M131.372 9.39472C136.122 1.86864 128.189 -11.6711 135.715 -6.92048C143.241 -2.16991 145.491 7.78229 140.74 15.3084C135.99 22.8345 126.038 25.0844 118.511 20.3339C110.985 15.5833 126.621 16.9208 131.372 9.39472Z" fill="#651FFF"/>
<path d="M139.974 10.4934C144.911 2.67211 136.667 -11.3987 144.488 -6.46178C152.309 -1.52485 154.647 8.81773 149.711 16.639C144.774 24.4604 134.431 26.7986 126.61 21.8617C118.788 16.9248 135.037 18.3147 139.974 10.4934Z" fill="#FF9900"/>
<path d="M152.251 11.4041C156.265 4.58991 148.848 -7.21839 155.662 -3.20499C162.477 0.808403 164.747 9.5859 160.734 16.4001C156.72 23.2143 147.943 25.4848 141.129 21.4714C134.314 17.458 148.238 18.2183 152.251 11.4041Z" fill="#0084FF"/>
</g>
<rect y="28.2148" width="164" height="40" rx="6" fill="#0084FF"/>
<mask id="mask4_5782_10058" style="mask-type:alpha" maskUnits="userSpaceOnUse" x="0" y="28" width="164" height="41">
<rect y="28.2148" width="164" height="40" rx="6" fill="#0084FF"/>
</mask>
<g mask="url(#mask4_5782_10058)">
<path d="M33.4337 39.325C49.0721 21.197 2.77562 -20.7366 40.4386 -3.34145C78.1015 14.0537 95.956 42.851 80.3177 60.979C64.6793 79.1071 21.4701 79.7012 -16.1928 62.306C-53.8558 44.9108 17.7954 57.4531 33.4337 39.325Z" fill="#0A0A0C"/>
<path d="M55.7878 55.5292C73.8201 34.626 43.706 -2.97968 72.2737 10.2147C100.842 23.4092 109.382 51.0508 91.3497 71.9541C73.3174 92.8573 35.5405 99.1065 6.97269 85.9121C-21.5951 72.7177 37.7554 76.4325 55.7878 55.5292Z" fill="#FF9900"/>
<path d="M149.344 46.679C156.632 28.1938 113.495 8.46572 144.817 11.4947C176.138 14.5237 195.621 31.9644 188.334 50.4495C181.046 68.9347 149.748 81.4644 118.426 78.4355C87.1046 75.4065 142.056 65.1642 149.344 46.679Z" fill="#FF9900"/>
<path d="M105.503 49.4715C111.23 34.9451 93.0128 20.9585 107.612 22.3704C122.211 23.7822 129.403 36.7026 123.676 51.229C117.949 65.7553 101.472 76.3868 86.873 74.9749C72.2741 73.5631 99.776 63.9979 105.503 49.4715Z" fill="#272A37"/>
<path d="M90.7032 51.3596C96.6772 36.2063 76.8068 21.5321 92.5896 23.0584C108.373 24.5847 116.324 38.1062 110.35 53.2596C104.376 68.413 86.7387 79.46 70.9558 77.9336C55.1729 76.4073 84.7291 66.513 90.7032 51.3596Z" fill="#0A0A0C"/>
</g>
<rect y="76.2148" width="120" height="40" rx="6" fill="#0084FF"/>
<mask id="mask5_5782_10058" style="mask-type:alpha" maskUnits="userSpaceOnUse" x="0" y="76" width="120" height="41">
<rect y="76.2148" width="120" height="40" rx="6" fill="#0084FF"/>
</mask>
<g mask="url(#mask5_5782_10058)">
<path d="M38.526 95.5471C29.8484 111.927 60.6946 133.202 36.5025 128.095C12.3105 122.988 -0.266515 105.569 8.41101 89.1894C17.0885 72.8096 43.7346 63.6715 67.9266 68.7788C92.1187 73.8861 47.2035 79.1673 38.526 95.5471Z" fill="#EA8888"/>
<path d="M58.8937 96.8474C50.2162 113.227 70.3418 132.239 52.9963 128.578C35.6509 124.916 28.6241 108.669 37.3016 92.289C45.9792 75.9093 67.0749 65.5994 84.4204 69.2613C101.766 72.9231 67.5713 80.4677 58.8937 96.8474Z" fill="#651FFF"/>
<path d="M87.3945 107.55C96.2213 97.3178 85.0052 80.5379 96.738 85.9569C108.471 91.3758 110.827 104.063 102 114.296C93.1731 124.528 76.5063 128.429 64.7735 123.01C53.0407 117.591 78.5678 117.782 87.3945 107.55Z" fill="#272A37"/>
<path d="M21.1549 103.292C10.749 122.934 29.4734 144.591 12.128 140.929C-5.21749 137.267 -10.8431 118.376 -0.437231 98.7333C9.96866 79.0911 32.4656 66.1365 49.811 69.7984C67.1565 73.4602 31.5608 83.6495 21.1549 103.292Z" fill="#0A0A0C"/>
<path d="M105.84 104.449C123.873 83.5459 93.7587 45.9402 122.326 59.1347C150.894 72.3291 159.435 99.9707 141.402 120.874C123.37 141.777 85.5932 148.026 57.0254 134.832C28.4577 121.638 87.8081 125.352 105.84 104.449Z" fill="#FF9900"/>
</g>
</svg>
