<svg width="141" height="141" viewBox="0 0 141 141" fill="none" xmlns="http://www.w3.org/2000/svg">
<mask id="mask0_5779_10456" style="mask-type:alpha" maskUnits="userSpaceOnUse" x="0" y="0" width="141" height="141">
<rect x="0.142578" y="0.214844" width="140" height="140" rx="70" fill="#D9D9D9"/>
</mask>
<g mask="url(#mask0_5779_10456)">
<path d="M0.175771 70.2149C0.17577 64.167 31.5158 30.2149 70.1758 30.2148C108.836 30.2148 140.176 65.8313 140.176 70.2148C140.176 74.5984 108.836 110.215 70.1758 110.215C31.5158 110.215 0.175771 76.2627 0.175771 70.2149Z" fill="#0A0A0C"/>
<mask id="mask1_5779_10456" style="mask-type:alpha" maskUnits="userSpaceOnUse" x="40" y="40" width="61" height="61">
<circle cx="70.1426" cy="70.2148" r="30" fill="#0084FF"/>
</mask>
<g mask="url(#mask1_5779_10456)">
<path d="M62.9269 66.8932C73.1298 50.7293 56.0909 21.6499 72.2548 31.8528C88.4187 42.0557 93.251 63.4301 83.0482 79.594C72.8453 95.7579 51.4708 100.59 35.3069 90.3874C19.143 80.1845 52.724 83.0571 62.9269 66.8932Z" fill="#651FFF"/>
<path d="M80.4045 76.2006C91.6532 58.3799 72.8678 26.3197 90.6886 37.5684C108.509 48.8171 113.837 72.3826 102.588 90.2034C91.3396 108.024 67.7741 113.352 49.9534 102.103C32.1326 90.8544 69.1558 94.0214 80.4045 76.2006Z" fill="#FF9900"/>
</g>
</g>
</svg>
