<svg width="151" height="123" viewBox="0 0 151 123" fill="none" xmlns="http://www.w3.org/2000/svg">
<rect width="150" height="121.586" transform="translate(0.142578 0.421875)" fill="#272A37"/>
<mask id="mask0_5871_10396" style="mask-type:alpha" maskUnits="userSpaceOnUse" x="0" y="67" width="71" height="56">
<path d="M70.1426 103.049C70.1426 113.52 54.4726 122.008 35.1426 122.008C15.8127 122.008 0.142637 113.52 0.142637 103.049C0.142637 101.031 0.14345 91.6419 0.142578 85.7998C4.65925 74.0988 19.539 67.9258 35.1426 67.9258C51.3577 67.9258 66.1678 74.0162 70.1426 85.7878C70.1426 89.6738 70.1426 101.362 70.1426 103.049Z" fill="#D9D9D9"/>
</mask>
<g mask="url(#mask0_5871_10396)">
<ellipse cx="34.0703" cy="102.716" rx="43.7227" ry="22.978" fill="#0084FF"/>
<path d="M-20.8906 103.762L61.7947 21.0762L66.4169 24.7524L-16.2685 107.438L-20.8906 103.762Z" fill="#FF9900"/>
<path d="M-9.56014 112.773L73.1252 30.0876L77.7474 33.7639L-4.938 116.449L-9.56014 112.773Z" fill="#FF9900"/>
<path d="M1.76974 121.785L84.4551 39.0994L89.0772 42.7757L6.39189 125.461L1.76974 121.785Z" fill="#FF9900"/>
<path d="M13.1005 130.796L95.7859 48.1109L100.408 51.7872L17.7227 134.473L13.1005 130.796Z" fill="#FF9900"/>
<path d="M24.431 139.808L107.116 57.1227L111.739 60.7989L29.0532 143.484L24.431 139.808Z" fill="#FF9900"/>
</g>
<ellipse cx="35.1426" cy="86.8802" rx="35" ry="18.9583" fill="#272A37"/>
<mask id="mask1_5871_10396" style="mask-type:alpha" maskUnits="userSpaceOnUse" x="0" y="60" width="71" height="39">
<ellipse cx="35.1426" cy="79.3802" rx="35" ry="18.9583" fill="#D9D9D9"/>
</mask>
<g mask="url(#mask1_5871_10396)">
<ellipse cx="34.0681" cy="79.3802" rx="36.074" ry="18.9583" fill="#651FFF"/>
<path d="M-35.1133 105.074L47.5721 22.3887L52.1942 26.0649L-30.4911 108.75L-35.1133 105.074Z" fill="#FF9900"/>
<path d="M-23.7828 114.086L58.9025 31.4001L63.5247 35.0764L-19.1607 117.762L-23.7828 114.086Z" fill="#FF9900"/>
<path d="M-12.4529 123.097L70.2324 40.4119L74.8546 44.0882L-7.83076 126.774L-12.4529 123.097Z" fill="#FF9900"/>
<path d="M-1.12214 132.109L81.5632 49.4234L86.1854 53.0997L3.50002 135.785L-1.12214 132.109Z" fill="#FF9900"/>
<path d="M10.2083 141.121L92.8937 58.4352L97.5159 62.1114L14.8305 144.797L10.2083 141.121Z" fill="#FF9900"/>
</g>
<mask id="mask2_5871_10396" style="mask-type:alpha" maskUnits="userSpaceOnUse" x="80" y="67" width="71" height="56">
<path d="M150.143 103.049C150.143 113.52 134.473 122.008 115.143 122.008C95.8127 122.008 80.1426 113.52 80.1426 103.049C80.1426 101.031 80.1435 91.6419 80.1426 85.7998C84.6593 74.0988 99.539 67.9258 115.143 67.9258C131.358 67.9258 146.168 74.0162 150.143 85.7878C150.143 89.6738 150.143 101.362 150.143 103.049Z" fill="#D9D9D9"/>
</mask>
<g mask="url(#mask2_5871_10396)">
<ellipse cx="114.07" cy="102.716" rx="43.7227" ry="22.978" fill="#0084FF"/>
<path d="M40.1426 127.703L153.17 14.6758L159.488 19.7011L46.4608 132.728L40.1426 127.703Z" fill="#0A0A0C"/>
<path d="M55.6308 140.021L168.658 26.9941L174.976 32.0193L61.9491 145.046L55.6308 140.021Z" fill="#0A0A0C"/>
<path d="M71.1182 152.34L184.145 39.3127L190.464 44.338L77.4365 157.365L71.1182 152.34Z" fill="#0A0A0C"/>
<path d="M86.6069 164.658L199.634 51.631L205.952 56.6563L92.9251 169.683L86.6069 164.658Z" fill="#0A0A0C"/>
<path d="M102.095 176.977L215.122 63.9497L221.44 68.9749L108.413 182.002L102.095 176.977Z" fill="#0A0A0C"/>
</g>
<ellipse cx="115.143" cy="86.8802" rx="35" ry="18.9583" fill="#272A37"/>
<mask id="mask3_5871_10396" style="mask-type:alpha" maskUnits="userSpaceOnUse" x="80" y="60" width="71" height="39">
<ellipse cx="115.143" cy="79.3802" rx="35" ry="18.9583" fill="#D9D9D9"/>
</mask>
<g mask="url(#mask3_5871_10396)">
<ellipse cx="114.068" cy="79.3802" rx="36.074" ry="18.9583" fill="#FF9900"/>
<path d="M44.8867 105.074L127.572 22.3887L132.194 26.0649L49.5089 108.75L44.8867 105.074Z" fill="white"/>
<path d="M56.2172 114.086L138.903 31.4001L143.525 35.0764L60.8393 117.762L56.2172 114.086Z" fill="white"/>
<path d="M67.5471 123.097L150.232 40.4119L154.855 44.0882L72.1692 126.774L67.5471 123.097Z" fill="white"/>
<path d="M78.8779 132.109L161.563 49.4234L166.185 53.0997L83.5 135.785L78.8779 132.109Z" fill="white"/>
<path d="M90.2083 141.121L172.894 58.4352L177.516 62.1114L94.8305 144.797L90.2083 141.121Z" fill="white"/>
</g>
<mask id="mask4_5871_10396" style="mask-type:alpha" maskUnits="userSpaceOnUse" x="40" y="7" width="71" height="56">
<path d="M110.143 43.0493C110.143 53.5197 94.4726 62.0076 75.1426 62.0076C55.8127 62.0076 40.1426 53.5197 40.1426 43.0493C40.1426 41.0308 40.1435 31.6419 40.1426 25.7998C44.6593 14.0988 59.539 7.92578 75.1426 7.92578C91.3577 7.92578 106.168 14.0162 110.143 25.7878C110.143 29.6738 110.143 41.3621 110.143 43.0493Z" fill="#D9D9D9"/>
</mask>
<g mask="url(#mask4_5871_10396)">
<ellipse cx="74.0703" cy="42.7163" rx="43.7227" ry="22.978" fill="#FF9900"/>
<path d="M19.1094 43.7615L101.795 -38.9238L106.417 -35.2476L23.7315 47.4378L19.1094 43.7615Z" fill="#651FFF"/>
<path d="M30.4399 52.773L113.125 -29.9124L117.747 -26.2361L35.062 56.4493L30.4399 52.773Z" fill="#651FFF"/>
<path d="M41.7697 61.7848L124.455 -20.9006L129.077 -17.2243L46.3919 65.461L41.7697 61.7848Z" fill="#651FFF"/>
<path d="M53.1005 70.7963L135.786 -11.8891L140.408 -8.21284L57.7227 74.4725L53.1005 70.7963Z" fill="#651FFF"/>
<path d="M64.431 79.808L147.116 -2.87733L151.739 0.798931L69.0532 83.4843L64.431 79.808Z" fill="#651FFF"/>
</g>
<ellipse cx="75.1426" cy="26.8802" rx="35" ry="18.9583" fill="#272A37"/>
<mask id="mask5_5871_10396" style="mask-type:alpha" maskUnits="userSpaceOnUse" x="40" y="0" width="71" height="39">
<ellipse cx="75.1426" cy="19.3802" rx="35" ry="18.9583" fill="#D9D9D9"/>
</mask>
<g mask="url(#mask5_5871_10396)">
<ellipse cx="74.0681" cy="19.3802" rx="36.074" ry="18.9583" fill="#0084FF"/>
<path d="M13.6367 45.074L96.3221 -37.6113L100.944 -33.9351L18.2589 48.7503L13.6367 45.074Z" fill="#272A37"/>
<path d="M24.9672 54.0855L107.653 -28.5999L112.275 -24.9236L29.5893 57.7618L24.9672 54.0855Z" fill="#272A37"/>
<path d="M36.2971 63.0973L118.982 -19.5881L123.605 -15.9118L40.9192 66.7735L36.2971 63.0973Z" fill="#272A37"/>
<path d="M47.6279 72.1088L130.313 -10.5766L134.935 -6.90034L52.25 75.785L47.6279 72.1088Z" fill="#272A37"/>
<path d="M58.9583 81.1205L141.644 -1.56483L146.266 2.11143L63.5805 84.7968L58.9583 81.1205Z" fill="#272A37"/>
</g>
</svg>
