<svg width="169" height="108" viewBox="0 0 169 108" fill="none" xmlns="http://www.w3.org/2000/svg">
<rect x="0.205078" y="4" width="40" height="100" rx="8" fill="#0A0A0C"/>
<mask id="mask0_5462_11821" style="mask-type:alpha" maskUnits="userSpaceOnUse" x="0" y="4" width="41" height="100">
<rect x="0.205078" y="4" width="40" height="100" rx="8" fill="#0A0A0C"/>
</mask>
<g mask="url(#mask0_5462_11821)">
<path d="M-65.0566 81.6188L41.2531 -24.6909L47.1959 -19.9643L-59.1139 86.3454L-65.0566 81.6188Z" fill="#FF9900"/>
<path d="M-50.4889 93.205L55.8209 -13.1047L61.7636 -8.37811L-44.5461 97.9316L-50.4889 93.205Z" fill="#FF9900"/>
<path d="M-35.9219 104.792L70.3879 -1.51817L76.3306 3.20845L-29.9791 109.518L-35.9219 104.792Z" fill="#FF9900"/>
<path d="M-21.3537 116.378L84.956 10.068L90.8988 14.7946L-15.411 121.104L-21.3537 116.378Z" fill="#FF9900"/>
<path d="M-6.78597 127.964L99.5238 21.6546L105.467 26.3812L-0.843209 132.691L-6.78597 127.964Z" fill="#FF9900"/>
</g>
<rect x="44.2051" y="4" width="40" height="100" rx="8" fill="#0084FF"/>
<mask id="mask1_5462_11821" style="mask-type:alpha" maskUnits="userSpaceOnUse" x="44" y="4" width="41" height="100">
<rect x="44.2051" y="4" width="40" height="100" rx="8" fill="#EA8888"/>
</mask>
<g mask="url(#mask1_5462_11821)">
<path d="M-21.0566 81.6188L85.2531 -24.6909L91.1959 -19.9643L-15.1139 86.3454L-21.0566 81.6188Z" fill="#651FFF"/>
<path d="M-6.48888 93.205L99.8209 -13.1047L105.764 -8.37811L-0.546116 97.9316L-6.48888 93.205Z" fill="#651FFF"/>
<path d="M8.07812 104.792L114.388 -1.51817L120.331 3.20845L14.0209 109.518L8.07812 104.792Z" fill="#651FFF"/>
<path d="M22.6463 116.378L128.956 10.068L134.899 14.7946L28.589 121.104L22.6463 116.378Z" fill="#651FFF"/>
<path d="M37.214 127.964L143.524 21.6546L149.467 26.3812L43.1568 132.691L37.214 127.964Z" fill="#651FFF"/>
</g>
<rect x="84.2051" y="20.6987" width="40" height="100" rx="8" transform="rotate(-30 84.2051 20.6987)" fill="#EA8888"/>
<mask id="mask2_5462_11821" style="mask-type:alpha" maskUnits="userSpaceOnUse" x="87" y="3" width="79" height="102">
<rect x="84.2051" y="20.6987" width="40" height="100" rx="8" transform="rotate(-30 84.2051 20.6987)" fill="#D9D9D9"/>
</mask>
<g mask="url(#mask2_5462_11821)">
<path d="M67.8521 117.697L106.764 -27.5251L114.274 -26.4031L75.362 118.819L67.8521 117.697Z" fill="#FF9900"/>
<path d="M86.2613 120.447L125.173 -24.7751L132.683 -23.6531L93.7712 121.569L86.2613 120.447Z" fill="#FF9900"/>
<path d="M104.67 123.198L143.582 -22.0243L151.092 -20.9023L112.18 124.319L104.67 123.198Z" fill="#FF9900"/>
<path d="M123.079 125.947L161.992 -19.2744L169.501 -18.1525L130.589 127.069L123.079 125.947Z" fill="#FF9900"/>
<path d="M141.489 128.698L180.401 -16.5241L187.911 -15.4021L148.999 129.82L141.489 128.698Z" fill="#FF9900"/>
</g>
</svg>
