<svg width="24" height="24" viewBox="0 0 24 24" fill="none" xmlns="http://www.w3.org/2000/svg">
<path d="M4.8 12C4.197 12 3.603 12 3 12M21 12C20.397 12 19.794 12 19.2 12M12 4.8C11.991 4.206 11.982 3.603 11.973 3M12 21C12 20.397 12 19.803 12 19.2M6.906 6.906C6.501 6.474 6.078 6.042 5.664 5.619M17.094 17.094C17.292 17.292 17.49 17.49 17.688 17.688C17.913 17.913 18.138 18.138 18.363 18.363M17.094 6.906C17.517 6.483 17.94 6.06 18.363 5.637M6.906 17.094C6.483 17.517 6.06 17.94 5.628 18.372M17.4 12C17.4 14.9823 14.9823 17.4 12 17.4C9.01766 17.4 6.6 14.9823 6.6 12C6.6 9.01766 9.01766 6.6 12 6.6C14.9823 6.6 17.4 9.01766 17.4 12Z" stroke="#323232" stroke-miterlimit="10" stroke-linecap="round" stroke-linejoin="round"/>
</svg>
