<svg width="61" height="41" viewBox="0 0 61 41" fill="none" xmlns="http://www.w3.org/2000/svg">
<g id="Group">
<rect x="60.1582" y="40.9631" width="60" height="40" rx="20" transform="rotate(180 60.1582 40.9631)" fill="#651FFF"/>
<g id="Group 338018">
<g id="Group 338026">
<path id="Vector 25" d="M30.1582 0.963137L30.1582 20.9631L0.158201 20.9631L6.80065 19.6289C17.1471 17.5507 25.8493 10.5965 30.1582 0.963137Z" fill="#FF9900"/>
<path id="Vector 26" d="M30.1582 0.963132L30.1582 20.9631L60.1582 20.9631L53.5157 19.6289C43.1693 17.5507 34.4671 10.5964 30.1582 0.963132Z" fill="#F6F6F6"/>
<path id="Vector 27" d="M30.1582 40.9631L30.1582 20.9631L0.158205 20.9631L6.80066 22.2974C17.1471 24.3756 25.8493 31.3298 30.1582 40.9631Z" fill="#0A0A0C"/>
<path id="Vector 28" d="M30.1582 40.9631L30.1582 20.9631L60.1582 20.9631L53.5158 22.2974C43.1693 24.3756 34.4671 31.3298 30.1582 40.9631Z" fill="#88CDEA"/>
</g>
</g>
</g>
</svg>
