<svg width="169" height="88" viewBox="0 0 169 88" fill="none" xmlns="http://www.w3.org/2000/svg">
<rect x="0.525391" width="40" height="40" rx="20" fill="#D9D9D9"/>
<mask id="mask0_5462_11794" style="mask-type:alpha" maskUnits="userSpaceOnUse" x="0" y="0" width="41" height="40">
<rect x="0.525391" width="40" height="40" rx="20" fill="#D9D9D9"/>
</mask>
<g mask="url(#mask0_5462_11794)">
<circle cx="14.5343" cy="20.825" r="32" transform="rotate(-177.739 14.5343 20.825)" fill="#0A0A0C"/>
<path d="M21.8788 14.0382C9.88469 1.0582 -20.1629 9.31656 -7.18294 -2.67754C5.79707 -14.6716 26.0426 -13.8724 38.0367 -0.892393C50.0308 12.0876 49.2315 32.3331 36.2515 44.3272C23.2715 56.3213 33.8729 27.0182 21.8788 14.0382Z" fill="#0085FF"/>
</g>
<rect x="48.5254" width="120" height="40" rx="6" fill="#0A0A0C"/>
<mask id="mask1_5462_11794" style="mask-type:alpha" maskUnits="userSpaceOnUse" x="48" y="0" width="121" height="40">
<rect x="48.5254" width="120" height="40" rx="6" fill="#0A0A0C"/>
</mask>
<g mask="url(#mask1_5462_11794)">
<path d="M75.1052 17.4313C85.7916 0.501276 67.9451 -29.9565 84.8752 -19.27C101.805 -8.58351 106.867 13.8041 96.1802 30.7342C85.4937 47.6643 63.106 52.7257 46.176 42.0392C29.2459 31.3527 64.4187 34.3614 75.1052 17.4313Z" fill="#651FFF"/>
<path d="M93.4097 27.1806C105.192 8.51513 85.5158 -25.0647 104.181 -13.2828C122.847 -1.50089 128.427 23.1816 116.645 41.8471C104.863 60.5126 80.1807 66.0928 61.5152 54.3109C42.8497 42.529 81.6278 45.8461 93.4097 27.1806Z" fill="#FF9900"/>
<path d="M150.379 21.3041C130.219 32.0404 130.687 72.3112 119.951 52.1512C109.214 31.9911 116.854 6.94466 137.014 -3.79169C157.174 -14.528 182.22 -6.88864 192.956 13.2714C203.693 33.4314 170.539 10.5677 150.379 21.3041Z" fill="#EA8888"/>
<path d="M150.379 45.6559C130.219 56.3923 130.687 96.663 119.951 76.503C109.214 56.3429 116.854 31.2965 137.014 20.5601C157.174 9.82377 182.22 17.4632 192.956 37.6232C203.693 57.7832 170.539 34.9196 150.379 45.6559Z" fill="#0084FF"/>
</g>
<rect x="128.525" y="48" width="40" height="40" rx="20" fill="#D9D9D9"/>
<mask id="mask2_5462_11794" style="mask-type:alpha" maskUnits="userSpaceOnUse" x="128" y="48" width="41" height="40">
<rect x="128.525" y="48" width="40" height="40" rx="20" fill="#D9D9D9"/>
</mask>
<g mask="url(#mask2_5462_11794)">
<circle cx="151.75" cy="70.4341" r="32" transform="rotate(-102.739 151.75 70.4341)" fill="#0A0A0C"/>
<path d="M143.255 67.8021C150.631 56.1174 138.313 35.0961 149.998 42.4717C161.683 49.8472 165.176 65.2987 157.8 76.9834C150.425 88.6682 134.973 92.1614 123.289 84.7858C111.604 77.4103 135.879 79.4868 143.255 67.8021Z" fill="#651FFF"/>
<path d="M155.889 74.5308C164.02 61.6483 150.441 38.4722 163.323 46.6038C176.205 54.7354 180.057 71.7707 171.925 84.6532C163.794 97.5357 146.758 101.387 133.876 93.2554C120.993 85.1238 147.757 87.4132 155.889 74.5308Z" fill="#FF9900"/>
</g>
<rect x="0.525391" y="48" width="120" height="40" rx="6" fill="#0084FF"/>
<mask id="mask3_5462_11794" style="mask-type:alpha" maskUnits="userSpaceOnUse" x="0" y="48" width="121" height="40">
<rect x="0.525391" y="48" width="120" height="40" rx="6" fill="#0084FF"/>
</mask>
<g mask="url(#mask3_5462_11794)">
<path d="M35.7681 42.0361C53.1632 14.4779 24.1132 -35.1004 51.6715 -17.7052C79.2297 -0.310082 87.4686 36.1319 70.0734 63.6901C52.6782 91.2484 16.2363 99.4872 -11.322 82.092C-38.8802 64.6969 18.3729 69.5944 35.7681 42.0361Z" fill="#0A0A0C"/>
<path d="M77.9702 76.2343C91.1647 55.3311 69.1299 17.7254 90.0332 30.9198C110.936 44.1142 117.186 71.7559 103.991 92.6591C90.7968 113.562 63.1552 119.812 42.2519 106.617C21.3487 93.4228 64.7758 97.1376 77.9702 76.2343Z" fill="#FF9900"/>
</g>
</svg>
